<?xml version="1.0" encoding="utf-8"?>
<!-- Generator: Adobe Illustrator 19.1.0, SVG Export Plug-In . SVG Version: 6.00 Build 0)  -->
<svg version="1.1" id="Layer_1" xmlns="http://www.w3.org/2000/svg" xmlns:xlink="http://www.w3.org/1999/xlink" x="0px" y="0px"
	 width="210.619px" height="41.184px" viewBox="0 0 210.619 41.184" style="enable-background:new 0 0 210.619 41.184;"
	 xml:space="preserve">
<style type="text/css">
	.st0{fill:#FFF200;}
	.st1{fill:#67CCE7;}
</style>
<g>
	<path class="st0" d="M2.56,18.784v-2.304l16.192-7.2v3.52L7.936,17.632l10.816,4.832v3.52L2.56,18.784z"/>
	<path class="st1" d="M32.448,16.224c-0.747-1.045-1.75-1.568-3.008-1.568c-0.512,0-1.013,0.128-1.504,0.384
		S27.2,15.711,27.2,16.288c0,0.47,0.202,0.811,0.608,1.024c0.405,0.213,0.917,0.395,1.536,0.544c0.618,0.15,1.285,0.304,2,0.464
		c0.714,0.16,1.381,0.405,2,0.736c0.618,0.331,1.13,0.784,1.536,1.36s0.608,1.366,0.608,2.368c0,0.918-0.198,1.691-0.592,2.32
		c-0.395,0.629-0.907,1.136-1.536,1.52c-0.629,0.385-1.339,0.662-2.128,0.832c-0.79,0.171-1.579,0.256-2.368,0.256
		c-1.195,0-2.293-0.171-3.296-0.512s-1.899-0.96-2.688-1.855l2.56-2.4c0.491,0.555,1.019,1.008,1.584,1.36
		c0.565,0.352,1.253,0.527,2.064,0.527c0.277,0,0.565-0.031,0.864-0.096c0.298-0.063,0.576-0.171,0.832-0.32
		c0.256-0.148,0.464-0.336,0.624-0.56c0.16-0.224,0.24-0.485,0.24-0.784c0-0.533-0.203-0.928-0.608-1.184s-0.917-0.464-1.536-0.624
		s-1.285-0.31-2-0.448s-1.381-0.362-2-0.672c-0.619-0.309-1.131-0.741-1.536-1.296c-0.406-0.555-0.608-1.323-0.608-2.304
		c0-0.853,0.176-1.594,0.528-2.224s0.816-1.146,1.392-1.552c0.576-0.405,1.237-0.704,1.984-0.896
		c0.747-0.192,1.504-0.288,2.272-0.288c1.024,0,2.037,0.176,3.04,0.528c1.002,0.352,1.813,0.955,2.432,1.808L32.448,16.224z"/>
	<path class="st1" d="M53.247,27.327h-3.648v-2.464h-0.064c-0.363,0.769-0.917,1.436-1.664,2c-0.747,0.565-1.76,0.848-3.04,0.848
		c-1.024,0-1.894-0.165-2.608-0.495c-0.715-0.331-1.296-0.779-1.744-1.345c-0.448-0.564-0.768-1.21-0.96-1.936
		s-0.288-1.482-0.288-2.272v-9.695h3.84v7.776c0,0.427,0.021,0.901,0.064,1.423c0.042,0.523,0.154,1.014,0.336,1.473
		c0.181,0.459,0.458,0.843,0.832,1.151c0.373,0.31,0.901,0.465,1.584,0.465c0.64,0,1.179-0.107,1.616-0.32
		c0.437-0.213,0.8-0.501,1.088-0.864c0.288-0.362,0.496-0.778,0.624-1.248c0.128-0.469,0.192-0.96,0.192-1.472v-8.384h3.84V27.327z"
		/>
	<path class="st1" d="M58.367,11.968h3.648v2.304h0.064c0.554-0.938,1.301-1.621,2.24-2.048c0.938-0.426,1.952-0.64,3.04-0.64
		c1.173,0,2.229,0.208,3.168,0.624c0.938,0.416,1.739,0.987,2.4,1.712c0.661,0.726,1.163,1.579,1.504,2.56
		c0.341,0.981,0.512,2.038,0.512,3.168c0,1.131-0.182,2.187-0.544,3.168c-0.363,0.981-0.87,1.835-1.52,2.56
		c-0.651,0.726-1.435,1.297-2.352,1.712c-0.917,0.416-1.92,0.624-3.008,0.624c-0.726,0-1.366-0.074-1.92-0.224
		c-0.555-0.149-1.046-0.341-1.472-0.576c-0.427-0.234-0.79-0.484-1.088-0.752c-0.299-0.267-0.544-0.527-0.736-0.784h-0.096v9.248
		h-3.84V11.968z M71.103,19.647c0-0.597-0.102-1.173-0.304-1.728c-0.203-0.554-0.501-1.045-0.896-1.472
		c-0.395-0.427-0.87-0.768-1.424-1.024c-0.555-0.256-1.184-0.384-1.888-0.384s-1.333,0.128-1.888,0.384
		c-0.555,0.256-1.03,0.597-1.424,1.024c-0.395,0.427-0.693,0.917-0.896,1.472c-0.203,0.555-0.304,1.131-0.304,1.728
		c0,0.598,0.101,1.174,0.304,1.728c0.203,0.556,0.501,1.046,0.896,1.473c0.395,0.427,0.869,0.768,1.424,1.023
		c0.554,0.256,1.184,0.385,1.888,0.385s1.333-0.129,1.888-0.385c0.554-0.256,1.029-0.597,1.424-1.023
		c0.395-0.427,0.693-0.917,0.896-1.473C71.001,20.821,71.103,20.245,71.103,19.647z"/>
	<path class="st1" d="M82.366,20.991c0.128,1.152,0.576,2.048,1.344,2.688c0.768,0.64,1.696,0.96,2.784,0.96
		c0.96,0,1.765-0.197,2.416-0.592c0.65-0.395,1.221-0.891,1.712-1.488l2.752,2.08c-0.896,1.109-1.899,1.898-3.008,2.368
		c-1.109,0.469-2.272,0.703-3.488,0.703c-1.152,0-2.24-0.191-3.264-0.575c-1.024-0.385-1.91-0.929-2.656-1.633
		c-0.747-0.703-1.339-1.552-1.776-2.544c-0.438-0.991-0.656-2.096-0.656-3.312s0.218-2.32,0.656-3.312
		c0.437-0.992,1.029-1.84,1.776-2.544c0.747-0.704,1.632-1.248,2.656-1.632s2.112-0.576,3.264-0.576c1.067,0,2.043,0.187,2.928,0.56
		c0.885,0.374,1.643,0.912,2.272,1.616c0.629,0.704,1.12,1.573,1.472,2.608c0.352,1.035,0.528,2.224,0.528,3.568v1.056H82.366z
		 M90.238,18.112c-0.021-1.131-0.374-2.021-1.056-2.672c-0.683-0.65-1.632-0.976-2.848-0.976c-1.152,0-2.064,0.331-2.736,0.992
		c-0.672,0.662-1.083,1.547-1.232,2.656H90.238z"/>
	<path class="st1" d="M98.43,11.968h3.84v2.432h0.064c0.426-0.896,1.034-1.589,1.824-2.08c0.789-0.491,1.696-0.736,2.72-0.736
		c0.234,0,0.464,0.021,0.688,0.064c0.224,0.043,0.453,0.096,0.688,0.16v3.712c-0.32-0.085-0.635-0.154-0.944-0.208
		c-0.31-0.053-0.614-0.08-0.912-0.08c-0.896,0-1.616,0.166-2.16,0.496c-0.544,0.331-0.96,0.709-1.248,1.136
		c-0.288,0.427-0.48,0.854-0.576,1.28c-0.096,0.427-0.144,0.747-0.144,0.96v8.224h-3.84V11.968z"/>
	<path class="st1" d="M122.142,16.576c-0.448-0.469-0.917-0.843-1.407-1.12c-0.492-0.277-0.992-0.416-1.505-0.416
		c-0.704,0-1.333,0.128-1.888,0.384c-0.555,0.256-1.029,0.597-1.424,1.024s-0.694,0.917-0.896,1.472
		c-0.203,0.555-0.304,1.131-0.304,1.728c0,0.598,0.101,1.174,0.304,1.728c0.203,0.556,0.502,1.046,0.896,1.473
		s0.869,0.768,1.424,1.023s1.184,0.385,1.888,0.385c0.597,0,1.152-0.123,1.664-0.368c0.513-0.245,0.949-0.603,1.312-1.072
		l2.561,2.752c-0.384,0.384-0.826,0.715-1.328,0.992s-1.008,0.501-1.52,0.672s-1.004,0.293-1.473,0.368
		c-0.469,0.074-0.875,0.111-1.216,0.111c-1.151,0-2.239-0.191-3.264-0.575c-1.024-0.385-1.91-0.929-2.656-1.633
		c-0.747-0.703-1.339-1.552-1.776-2.544c-0.438-0.991-0.656-2.096-0.656-3.312s0.218-2.32,0.656-3.312
		c0.437-0.992,1.029-1.84,1.776-2.544c0.747-0.704,1.632-1.248,2.656-1.632c1.024-0.384,2.112-0.576,3.264-0.576
		c0.981,0,1.968,0.187,2.96,0.56c0.992,0.374,1.861,0.966,2.608,1.776L122.142,16.576z"/>
	<path class="st1" d="M127.07,19.647c0-1.216,0.218-2.32,0.655-3.312c0.437-0.992,1.028-1.84,1.776-2.544
		c0.746-0.704,1.632-1.248,2.656-1.632c1.023-0.384,2.111-0.576,3.264-0.576s2.24,0.192,3.264,0.576s1.909,0.928,2.656,1.632
		c0.746,0.704,1.338,1.552,1.775,2.544c0.438,0.992,0.656,2.096,0.656,3.312s-0.219,2.32-0.656,3.312
		c-0.438,0.992-1.029,1.841-1.775,2.544c-0.747,0.704-1.633,1.248-2.656,1.633c-1.023,0.384-2.111,0.575-3.264,0.575
		s-2.24-0.191-3.264-0.575c-1.024-0.385-1.91-0.929-2.656-1.633c-0.748-0.703-1.34-1.552-1.776-2.544
		C127.288,21.968,127.07,20.863,127.07,19.647z M130.91,19.647c0,0.598,0.101,1.174,0.303,1.728
		c0.203,0.556,0.502,1.046,0.896,1.473s0.869,0.768,1.424,1.023s1.185,0.385,1.889,0.385c0.703,0,1.332-0.129,1.888-0.385
		c0.555-0.256,1.028-0.597,1.424-1.023c0.395-0.427,0.693-0.917,0.896-1.473c0.203-0.554,0.305-1.13,0.305-1.728
		c0-0.597-0.102-1.173-0.305-1.728c-0.202-0.554-0.501-1.045-0.896-1.472c-0.396-0.427-0.869-0.768-1.424-1.024
		c-0.556-0.256-1.185-0.384-1.888-0.384c-0.704,0-1.334,0.128-1.889,0.384c-0.555,0.256-1.029,0.597-1.424,1.024
		s-0.693,0.917-0.896,1.472C131.011,18.475,130.91,19.051,130.91,19.647z"/>
	<path class="st1" d="M147.357,19.647c0-1.216,0.219-2.32,0.656-3.312c0.437-0.992,1.028-1.84,1.775-2.544
		c0.746-0.704,1.633-1.248,2.656-1.632s2.111-0.576,3.264-0.576s2.24,0.192,3.264,0.576c1.024,0.384,1.91,0.928,2.656,1.632
		s1.339,1.552,1.776,2.544c0.437,0.992,0.655,2.096,0.655,3.312s-0.219,2.32-0.655,3.312c-0.438,0.992-1.03,1.841-1.776,2.544
		c-0.746,0.704-1.632,1.248-2.656,1.633c-1.023,0.384-2.111,0.575-3.264,0.575s-2.24-0.191-3.264-0.575
		c-1.023-0.385-1.91-0.929-2.656-1.633c-0.747-0.703-1.339-1.552-1.775-2.544C147.576,21.968,147.357,20.863,147.357,19.647z
		 M151.197,19.647c0,0.598,0.102,1.174,0.304,1.728c0.202,0.556,0.501,1.046,0.896,1.473c0.394,0.427,0.868,0.768,1.424,1.023
		c0.554,0.256,1.185,0.385,1.888,0.385c0.704,0,1.333-0.129,1.889-0.385c0.555-0.256,1.028-0.597,1.424-1.023
		c0.395-0.427,0.693-0.917,0.896-1.473c0.202-0.554,0.304-1.13,0.304-1.728c0-0.597-0.102-1.173-0.304-1.728
		c-0.202-0.554-0.501-1.045-0.896-1.472c-0.396-0.427-0.869-0.768-1.424-1.024c-0.556-0.256-1.185-0.384-1.889-0.384
		c-0.703,0-1.334,0.128-1.888,0.384c-0.556,0.256-1.03,0.597-1.424,1.024c-0.396,0.427-0.694,0.917-0.896,1.472
		C151.299,18.475,151.197,19.051,151.197,19.647z"/>
	<path class="st1" d="M168.477,3.136h3.84v24.191h-3.84V3.136z"/>
	<path class="st0" d="M177.693,28.863l-2.656-0.96l9.983-24.832l2.656,1.024L177.693,28.863z"/>
	<path class="st0" d="M207.292,16.479v2.304l-16.192,7.2v-3.52l10.816-4.832L191.1,12.8V9.28L207.292,16.479z"/>
</g>
</svg>
